<svg version="1" xmlns="http://www.w3.org/2000/svg" width="1365.333" height="1365.333" viewBox="0 0 1024.000000 1024.000000"><path d="M485.8.5c-.2.1-5 .5-10.8.9-5.8.3-11.6.8-13 1.1-1.4.2-5.2.6-8.5 1-3.3.3-7.6.7-9.5 1-5.8.7-29.4 4.6-30 5-.3.2-2.6.6-5 1-2.5.4-12.6 2.7-22.5 5.2C328.6 30.1 270.7 56.4 222 90.2c-11.9 8.3-36.1 26.6-38 28.7-.3.4-3.4 3.1-7 6.1-11.7 9.9-36.7 34.5-47.6 46.9-2.2 2.4-5.5 6.3-7.5 8.5-19.3 22.1-45.5 60.4-60.4 88.1-13.2 24.6-25 51.4-33.5 76-6.9 20.2-14 45.8-17.4 63.5-.2 1.4-.9 4.7-1.5 7.5-.6 2.7-1.3 6.6-1.6 8.5-1.2 7.7-3.4 23.8-4 28.5-.3 2.7-.8 6.3-1 8-2.6 19.2-2.6 85.8 0 101.6.2 1.3.6 5.1 1 8.4.3 3.3.8 7.6 1 9.5 1.1 7.5 2.7 17.6 3.1 20 .3 1.4.7 3.8.9 5.5.6 3.9 1.3 7.3 1.9 9.3.3.9.8 3.3 1.1 5.2.6 3.6 5.9 25.1 7.5 30.5 3.4 11.3 10.3 33.3 11 35 .5 1.1 2.9 7.2 5.4 13.5 11.1 28.7 25.9 57.8 44.9 88.4 6.2 10 34.6 48.9 37.7 51.6.3.3 4.7 5.2 9.7 11C194 926.1 286.4 983 384 1007.8c13.9 3.5 20.4 5 24.9 5.7 1.9.3 3.7.7 4 .9.3.2 2.6.7 5.1 1 2.5.3 5.6.8 7 1.1 6.7 1.4 18.3 3 28 4 3 .4 7.1.8 9 1 22 2.6 87.4 2.6 100.9 0 .9-.2 4.7-.6 8.3-.9 3.7-.4 7.5-.8 8.5-1 1-.2 4.1-.7 6.8-1 4.2-.6 11.8-1.9 23.5-4 30.5-5.6 72.5-18.4 101-30.8 12.2-5.3 29.6-13.2 30.5-13.9.6-.4 5.3-2.9 10.5-5.7 37.9-19.7 79.7-49.7 110.4-79.1 27-25.8 46.5-48.2 67.3-77.2 7.7-10.7 24.3-36.2 24.3-37.4 0-.2 2-3.7 4.4-7.7 4.6-7.9 17.4-33.2 22-43.8 10.3-23.4 24.1-63.1 27.1-77.8.2-.9 1.5-6.4 2.9-12.2 2.7-11.2 5.2-23.4 6.1-29.7.4-2.1 1-6.3 1.5-9.3 1.1-6.3 1.7-11 2.6-19.5.3-3.3.7-7.1 1-8.5 2.5-16 2.5-85.2 0-100-.3-1.4-.7-5.2-1-8.5-.8-7.7-1.5-13.3-2.1-16.5-.3-1.4-.7-4.3-1.1-6.5-1.6-11.7-4.5-25.7-8.5-41.8-7.1-28.5-14.5-50.4-28-82.7-3.4-8.2-20.8-42.3-26.3-51.5-33.6-56.6-75.2-104.6-124.9-143.8-24.5-19.4-50.2-36.3-76.2-50.2-4.9-2.7-9.7-5.2-10.5-5.6-3.3-1.8-27-12.9-27.6-12.9-.3 0-4.1-1.5-8.4-3.4-33.4-14.7-83.8-28.3-127-34.1-2.5-.3-5.6-.8-7-1-1.4-.2-6.1-.7-10.5-1-4.4-.4-9.8-.9-12-1.2-4.7-.4-64.2-1.3-64.7-.8z"/></svg>