<?xml version="1.0" encoding="UTF-8"?>
<svg width="80px" height="80px" viewBox="0 0 80 80" version="1.1" xmlns="http://www.w3.org/2000/svg" xmlns:xlink="http://www.w3.org/1999/xlink">
    <!-- Generator: Sketch 49.2 (51160) - http://www.bohemiancoding.com/sketch -->
    <title>Logo</title>
    <desc>Created with Sketch.</desc>
    <defs>
        <circle id="path-1" cx="39.992189" cy="39.992189" r="39.992189"></circle>
    </defs>
    <g id="Home" stroke="none" stroke-width="1" fill="none" fill-rule="evenodd">
        <g id="00" transform="translate(-600.000000, -32.000000)">
            <g id="Intro" transform="translate(406.000000, 32.000000)">
                <g id="Logo" transform="translate(194.000000, 0.000000)">
                    <mask id="mask-2" fill="white">
                        <use xlink:href="#path-1"></use>
                    </mask>
                    <use id="Oval" fill="#FF3636" fill-rule="evenodd" xlink:href="#path-1"></use>
                    <path d="M39.692514,24.0578012 L49.021287,24.0578012 C52.6011267,24.0578012 55.3238877,25.0622511 57.1896516,27.0711811 C59.0554156,29.0801111 59.9882835,31.9869284 59.9882835,35.79172 C59.9882835,38.9268684 59.6545747,41.742372 58.9871469,44.2383153 C58.3197192,46.7342586 57.3413455,48.8496911 56.0519964,50.5846761 C54.7626473,52.3196611 53.1623616,53.6437087 51.2510913,54.5568587 C49.3398209,55.4700087 47.1555447,55.9265768 44.6981971,55.9265768 L34.3682874,55.9265768 L39.692514,24.0578012 Z M44.8347157,50.5846761 C46.8673366,50.5846761 48.460038,49.9987469 49.6128677,48.8268711 C50.7656975,47.6549953 51.5544639,45.8363321 51.9791906,43.3708271 L52.934821,37.6180109 C53.0258339,37.0701209 53.0940925,36.5222391 53.139599,35.9743491 C53.1851054,35.4264591 53.2078583,34.9394531 53.2078583,34.5133164 C53.2078583,31.1042231 51.6151569,29.399702 48.4297063,29.399702 L45.4718026,29.399702 L41.9678245,50.5846761 L44.8347157,50.5846761 Z" id="D" fill="#0A7CFF" fill-rule="evenodd" style="mix-blend-mode: multiply;" mask="url(#mask-2)"></path>
                    <polygon id="F" fill="#FFE936" fill-rule="evenodd" mask="url(#mask-2)" points="20.152314 55.9265768 25.4637766 24.0578012 46.397188 24.0578012 45.4598711 29.3692638 31.2438977 29.3692638 29.9941418 37.0240187 44.2101152 37.0240187 43.2727983 42.4917008 29.0568248 42.4917008 26.869752 55.9265768"></polygon>
                    <polygon id="Path-2" fill="#FFBD38" fill-rule="evenodd" mask="url(#mask-2)" points="36.6092641 42.5126522 43.3093411 42.5126522 44.224354 37.0192386 37.5176729 37.0192386"></polygon>
                    <polygon id="Path-3" fill="#FFBD38" fill-rule="evenodd" mask="url(#mask-2)" points="38.7975829 29.3828796 45.4510377 29.3828796 46.4186987 24.065124 39.6987257 24.065124"></polygon>
                </g>
            </g>
        </g>
    </g>
</svg>